<mxfile host="app.diagrams.net" agent="Mozilla/5.0 (Windows NT 10.0; Win64; x64) AppleWebKit/537.36 (KHTML, like Gecko) Chrome/134.0.0.0 Safari/537.36" version="26.1.1">
  <diagram name="Page-1" id="kAkvocXkR7tXlKdEFRBi">
    <mxGraphModel dx="2206" dy="1135" grid="1" gridSize="10" guides="1" tooltips="1" connect="1" arrows="1" fold="1" page="1" pageScale="1" pageWidth="850" pageHeight="1100" math="0" shadow="0">
      <root>
        <mxCell id="0" />
        <mxCell id="1" parent="0" />
        <mxCell id="ov1qgPo9eA0PAGGar4j0-17" style="edgeStyle=orthogonalEdgeStyle;rounded=0;orthogonalLoop=1;jettySize=auto;html=1;entryX=0.5;entryY=0;entryDx=0;entryDy=0;" edge="1" parent="1" source="ov1qgPo9eA0PAGGar4j0-1" target="ov1qgPo9eA0PAGGar4j0-5">
          <mxGeometry relative="1" as="geometry" />
        </mxCell>
        <mxCell id="ov1qgPo9eA0PAGGar4j0-1" value="" style="ellipse;whiteSpace=wrap;html=1;sketch=1;curveFitting=1;jiggle=2;fillColor=#d5e8d4;strokeColor=#82b366;" vertex="1" parent="1">
          <mxGeometry x="340" y="30" width="170" height="60" as="geometry" />
        </mxCell>
        <mxCell id="ov1qgPo9eA0PAGGar4j0-2" value="" style="ellipse;whiteSpace=wrap;html=1;sketch=1;curveFitting=1;jiggle=2;fillColor=#f8cecc;strokeColor=#b85450;" vertex="1" parent="1">
          <mxGeometry x="340" y="1020" width="170" height="60" as="geometry" />
        </mxCell>
        <mxCell id="ov1qgPo9eA0PAGGar4j0-3" value="Start" style="text;html=1;align=center;verticalAlign=middle;resizable=0;points=[];autosize=1;strokeColor=none;fillColor=none;" vertex="1" parent="1">
          <mxGeometry x="400" y="45" width="50" height="30" as="geometry" />
        </mxCell>
        <mxCell id="ov1qgPo9eA0PAGGar4j0-4" value="End" style="text;html=1;align=center;verticalAlign=middle;resizable=0;points=[];autosize=1;strokeColor=none;fillColor=none;" vertex="1" parent="1">
          <mxGeometry x="405" y="1035" width="40" height="30" as="geometry" />
        </mxCell>
        <mxCell id="ov1qgPo9eA0PAGGar4j0-16" style="edgeStyle=orthogonalEdgeStyle;rounded=0;orthogonalLoop=1;jettySize=auto;html=1;entryX=0.5;entryY=0;entryDx=0;entryDy=0;" edge="1" parent="1" source="ov1qgPo9eA0PAGGar4j0-5" target="ov1qgPo9eA0PAGGar4j0-7">
          <mxGeometry relative="1" as="geometry" />
        </mxCell>
        <mxCell id="ov1qgPo9eA0PAGGar4j0-5" value="" style="shape=parallelogram;perimeter=parallelogramPerimeter;whiteSpace=wrap;html=1;fixedSize=1;shadow=0;sketch=1;curveFitting=1;jiggle=2;fillColor=#ffe6cc;strokeColor=#d79b00;" vertex="1" parent="1">
          <mxGeometry x="340" y="110" width="170" height="60" as="geometry" />
        </mxCell>
        <mxCell id="ov1qgPo9eA0PAGGar4j0-6" value="Input user_lastname" style="text;html=1;align=center;verticalAlign=middle;resizable=0;points=[];autosize=1;strokeColor=none;fillColor=none;" vertex="1" parent="1">
          <mxGeometry x="360" y="125" width="130" height="30" as="geometry" />
        </mxCell>
        <mxCell id="ov1qgPo9eA0PAGGar4j0-9" style="edgeStyle=orthogonalEdgeStyle;rounded=0;orthogonalLoop=1;jettySize=auto;html=1;entryX=1;entryY=0.5;entryDx=0;entryDy=0;" edge="1" parent="1" source="ov1qgPo9eA0PAGGar4j0-7" target="ov1qgPo9eA0PAGGar4j0-2">
          <mxGeometry relative="1" as="geometry">
            <mxPoint x="600" y="645" as="targetPoint" />
            <Array as="points">
              <mxPoint x="710" y="265" />
              <mxPoint x="710" y="1050" />
            </Array>
          </mxGeometry>
        </mxCell>
        <mxCell id="ov1qgPo9eA0PAGGar4j0-7" value="" style="rhombus;whiteSpace=wrap;html=1;sketch=1;curveFitting=1;jiggle=2;fillColor=#dae8fc;strokeColor=#6c8ebf;" vertex="1" parent="1">
          <mxGeometry x="360" y="200" width="130" height="130" as="geometry" />
        </mxCell>
        <mxCell id="ov1qgPo9eA0PAGGar4j0-15" style="edgeStyle=orthogonalEdgeStyle;rounded=0;orthogonalLoop=1;jettySize=auto;html=1;entryX=0.5;entryY=0;entryDx=0;entryDy=0;" edge="1" parent="1" source="ov1qgPo9eA0PAGGar4j0-8" target="ov1qgPo9eA0PAGGar4j0-13">
          <mxGeometry relative="1" as="geometry" />
        </mxCell>
        <mxCell id="ov1qgPo9eA0PAGGar4j0-8" value="user_lastname = zzzz" style="text;html=1;align=center;verticalAlign=middle;resizable=0;points=[];autosize=1;strokeColor=none;fillColor=none;" vertex="1" parent="1">
          <mxGeometry x="355" y="250" width="140" height="30" as="geometry" />
        </mxCell>
        <mxCell id="ov1qgPo9eA0PAGGar4j0-11" value="True" style="text;html=1;align=center;verticalAlign=middle;resizable=0;points=[];autosize=1;strokeColor=none;fillColor=none;" vertex="1" parent="1">
          <mxGeometry x="570" y="245" width="50" height="30" as="geometry" />
        </mxCell>
        <mxCell id="ov1qgPo9eA0PAGGar4j0-12" value="False" style="text;html=1;align=center;verticalAlign=middle;resizable=0;points=[];autosize=1;strokeColor=none;fillColor=none;" vertex="1" parent="1">
          <mxGeometry x="270" y="245" width="50" height="30" as="geometry" />
        </mxCell>
        <mxCell id="ov1qgPo9eA0PAGGar4j0-20" style="edgeStyle=orthogonalEdgeStyle;rounded=0;orthogonalLoop=1;jettySize=auto;html=1;entryX=0.5;entryY=0;entryDx=0;entryDy=0;" edge="1" parent="1" source="ov1qgPo9eA0PAGGar4j0-13" target="ov1qgPo9eA0PAGGar4j0-18">
          <mxGeometry relative="1" as="geometry" />
        </mxCell>
        <mxCell id="ov1qgPo9eA0PAGGar4j0-13" value="" style="shape=parallelogram;perimeter=parallelogramPerimeter;whiteSpace=wrap;html=1;fixedSize=1;shadow=0;sketch=1;curveFitting=1;jiggle=2;fillColor=#ffe6cc;strokeColor=#d79b00;" vertex="1" parent="1">
          <mxGeometry x="130" y="325" width="190" height="60" as="geometry" />
        </mxCell>
        <mxCell id="ov1qgPo9eA0PAGGar4j0-14" value="input bathroom_cleancount" style="text;html=1;align=center;verticalAlign=middle;resizable=0;points=[];autosize=1;strokeColor=none;fillColor=none;" vertex="1" parent="1">
          <mxGeometry x="140" y="340" width="170" height="30" as="geometry" />
        </mxCell>
        <mxCell id="ov1qgPo9eA0PAGGar4j0-22" style="edgeStyle=orthogonalEdgeStyle;rounded=0;orthogonalLoop=1;jettySize=auto;html=1;entryX=0.5;entryY=0;entryDx=0;entryDy=0;" edge="1" parent="1" source="ov1qgPo9eA0PAGGar4j0-18" target="ov1qgPo9eA0PAGGar4j0-21">
          <mxGeometry relative="1" as="geometry" />
        </mxCell>
        <mxCell id="ov1qgPo9eA0PAGGar4j0-18" value="" style="shape=parallelogram;perimeter=parallelogramPerimeter;whiteSpace=wrap;html=1;fixedSize=1;shadow=0;sketch=1;curveFitting=1;jiggle=2;fillColor=#ffe6cc;strokeColor=#d79b00;" vertex="1" parent="1">
          <mxGeometry x="130" y="415" width="190" height="60" as="geometry" />
        </mxCell>
        <mxCell id="ov1qgPo9eA0PAGGar4j0-19" value="input room_cleancount" style="text;html=1;align=center;verticalAlign=middle;resizable=0;points=[];autosize=1;strokeColor=none;fillColor=none;" vertex="1" parent="1">
          <mxGeometry x="155" y="430" width="140" height="30" as="geometry" />
        </mxCell>
        <mxCell id="ov1qgPo9eA0PAGGar4j0-29" style="edgeStyle=orthogonalEdgeStyle;rounded=0;orthogonalLoop=1;jettySize=auto;html=1;entryX=0.5;entryY=0;entryDx=0;entryDy=0;" edge="1" parent="1" source="ov1qgPo9eA0PAGGar4j0-21" target="ov1qgPo9eA0PAGGar4j0-24">
          <mxGeometry relative="1" as="geometry" />
        </mxCell>
        <mxCell id="ov1qgPo9eA0PAGGar4j0-21" value="" style="rounded=0;whiteSpace=wrap;html=1;sketch=1;curveFitting=1;jiggle=2;fillColor=#e1d5e7;strokeColor=#9673a6;" vertex="1" parent="1">
          <mxGeometry x="130" y="505" width="190" height="60" as="geometry" />
        </mxCell>
        <mxCell id="ov1qgPo9eA0PAGGar4j0-23" value="total_cost = 40 +&amp;nbsp;&lt;div&gt;bathroom_cleancount +&amp;nbsp;&lt;/div&gt;&lt;div&gt;room_cleancount&lt;/div&gt;" style="text;html=1;align=center;verticalAlign=middle;resizable=0;points=[];autosize=1;strokeColor=none;fillColor=none;" vertex="1" parent="1">
          <mxGeometry x="155" y="505" width="150" height="60" as="geometry" />
        </mxCell>
        <mxCell id="ov1qgPo9eA0PAGGar4j0-37" style="edgeStyle=orthogonalEdgeStyle;rounded=0;orthogonalLoop=1;jettySize=auto;html=1;entryX=0.5;entryY=0;entryDx=0;entryDy=0;" edge="1" parent="1" source="ov1qgPo9eA0PAGGar4j0-24" target="ov1qgPo9eA0PAGGar4j0-30">
          <mxGeometry relative="1" as="geometry" />
        </mxCell>
        <mxCell id="ov1qgPo9eA0PAGGar4j0-24" value="" style="shape=parallelogram;perimeter=parallelogramPerimeter;whiteSpace=wrap;html=1;fixedSize=1;shadow=0;sketch=1;curveFitting=1;jiggle=2;fillColor=#fff2cc;strokeColor=#d6b656;" vertex="1" parent="1">
          <mxGeometry x="130" y="595" width="190" height="60" as="geometry" />
        </mxCell>
        <mxCell id="ov1qgPo9eA0PAGGar4j0-25" value="output &quot;Customer last name&amp;nbsp;&lt;div&gt;is&quot;, user_lastname&lt;/div&gt;" style="text;html=1;align=center;verticalAlign=middle;resizable=0;points=[];autosize=1;strokeColor=none;fillColor=none;" vertex="1" parent="1">
          <mxGeometry x="135" y="605" width="180" height="40" as="geometry" />
        </mxCell>
        <mxCell id="ov1qgPo9eA0PAGGar4j0-39" style="edgeStyle=orthogonalEdgeStyle;rounded=0;orthogonalLoop=1;jettySize=auto;html=1;entryX=0.5;entryY=0;entryDx=0;entryDy=0;" edge="1" parent="1" source="ov1qgPo9eA0PAGGar4j0-30" target="ov1qgPo9eA0PAGGar4j0-32">
          <mxGeometry relative="1" as="geometry" />
        </mxCell>
        <mxCell id="ov1qgPo9eA0PAGGar4j0-30" value="" style="shape=parallelogram;perimeter=parallelogramPerimeter;whiteSpace=wrap;html=1;fixedSize=1;shadow=0;sketch=1;curveFitting=1;jiggle=2;fillColor=#fff2cc;strokeColor=#d6b656;" vertex="1" parent="1">
          <mxGeometry x="130" y="685" width="190" height="60" as="geometry" />
        </mxCell>
        <mxCell id="ov1qgPo9eA0PAGGar4j0-31" value="output &quot;Each bathroom costs&lt;div&gt;$15 to clean.&quot;&lt;/div&gt;" style="text;html=1;align=center;verticalAlign=middle;resizable=0;points=[];autosize=1;strokeColor=none;fillColor=none;" vertex="1" parent="1">
          <mxGeometry x="135" y="695" width="180" height="40" as="geometry" />
        </mxCell>
        <mxCell id="ov1qgPo9eA0PAGGar4j0-41" style="edgeStyle=orthogonalEdgeStyle;rounded=0;orthogonalLoop=1;jettySize=auto;html=1;entryX=0.5;entryY=0;entryDx=0;entryDy=0;" edge="1" parent="1" source="ov1qgPo9eA0PAGGar4j0-32" target="ov1qgPo9eA0PAGGar4j0-34">
          <mxGeometry relative="1" as="geometry" />
        </mxCell>
        <mxCell id="ov1qgPo9eA0PAGGar4j0-32" value="" style="shape=parallelogram;perimeter=parallelogramPerimeter;whiteSpace=wrap;html=1;fixedSize=1;shadow=0;sketch=1;curveFitting=1;jiggle=2;fillColor=#fff2cc;strokeColor=#d6b656;" vertex="1" parent="1">
          <mxGeometry x="130" y="775" width="190" height="60" as="geometry" />
        </mxCell>
        <mxCell id="ov1qgPo9eA0PAGGar4j0-33" value="output &quot;Each other room is&lt;div&gt;$10 to clean&quot;&lt;/div&gt;" style="text;html=1;align=center;verticalAlign=middle;resizable=0;points=[];autosize=1;strokeColor=none;fillColor=none;" vertex="1" parent="1">
          <mxGeometry x="140" y="785" width="170" height="40" as="geometry" />
        </mxCell>
        <mxCell id="ov1qgPo9eA0PAGGar4j0-44" style="edgeStyle=orthogonalEdgeStyle;rounded=0;orthogonalLoop=1;jettySize=auto;html=1;entryX=0.5;entryY=0;entryDx=0;entryDy=0;" edge="1" parent="1" source="ov1qgPo9eA0PAGGar4j0-34" target="ov1qgPo9eA0PAGGar4j0-42">
          <mxGeometry relative="1" as="geometry" />
        </mxCell>
        <mxCell id="ov1qgPo9eA0PAGGar4j0-34" value="" style="shape=parallelogram;perimeter=parallelogramPerimeter;whiteSpace=wrap;html=1;fixedSize=1;shadow=0;sketch=1;curveFitting=1;jiggle=2;fillColor=#fff2cc;strokeColor=#d6b656;" vertex="1" parent="1">
          <mxGeometry x="130" y="865" width="190" height="60" as="geometry" />
        </mxCell>
        <mxCell id="ov1qgPo9eA0PAGGar4j0-35" value="output &quot;We also have a $40&amp;nbsp;&lt;div&gt;service fee&quot;&lt;/div&gt;" style="text;html=1;align=center;verticalAlign=middle;resizable=0;points=[];autosize=1;strokeColor=none;fillColor=none;" vertex="1" parent="1">
          <mxGeometry x="140" y="875" width="170" height="40" as="geometry" />
        </mxCell>
        <mxCell id="ov1qgPo9eA0PAGGar4j0-42" value="" style="shape=parallelogram;perimeter=parallelogramPerimeter;whiteSpace=wrap;html=1;fixedSize=1;shadow=0;sketch=1;curveFitting=1;jiggle=2;fillColor=#fff2cc;strokeColor=#d6b656;" vertex="1" parent="1">
          <mxGeometry x="130" y="950" width="190" height="60" as="geometry" />
        </mxCell>
        <mxCell id="ov1qgPo9eA0PAGGar4j0-48" style="edgeStyle=orthogonalEdgeStyle;rounded=0;orthogonalLoop=1;jettySize=auto;html=1;entryX=0.5;entryY=0;entryDx=0;entryDy=0;" edge="1" parent="1" source="ov1qgPo9eA0PAGGar4j0-43" target="ov1qgPo9eA0PAGGar4j0-2">
          <mxGeometry relative="1" as="geometry" />
        </mxCell>
        <mxCell id="ov1qgPo9eA0PAGGar4j0-43" value="output &quot;This makes your total&quot;,&lt;div&gt;total_cost&lt;/div&gt;" style="text;html=1;align=center;verticalAlign=middle;resizable=0;points=[];autosize=1;strokeColor=none;fillColor=none;" vertex="1" parent="1">
          <mxGeometry x="130" y="960" width="190" height="40" as="geometry" />
        </mxCell>
      </root>
    </mxGraphModel>
  </diagram>
</mxfile>
